<?xml version="1.0" encoding="UTF-8"?>
<!DOCTYPE svg PUBLIC "-//W3C//DTD SVG 1.1//EN" "http://www.w3.org/Graphics/SVG/1.1/DTD/svg11.dtd">
<svg xmlns="http://www.w3.org/2000/svg" version="1.1" width="730px" height="730px" style="shape-rendering:geometricPrecision; text-rendering:geometricPrecision; image-rendering:optimizeQuality; fill-rule:evenodd; clip-rule:evenodd" xmlns:xlink="http://www.w3.org/1999/xlink">
<g><path style="opacity:1" fill="#fbf7eb" d="M -0.5,-0.5 C 242.833,-0.5 486.167,-0.5 729.5,-0.5C 729.5,242.833 729.5,486.167 729.5,729.5C 486.167,729.5 242.833,729.5 -0.5,729.5C -0.5,486.167 -0.5,242.833 -0.5,-0.5 Z"/></g>
<g><path style="opacity:1" fill="#245e3a" d="M 637.5,235.5 C 637.662,374.554 637.495,513.554 637,652.5C 637.278,651.584 637.778,650.918 638.5,650.5C 637.849,653.803 636.182,656.47 633.5,658.5C 633.44,657.957 633.107,657.624 632.5,657.5C 624.822,662.015 617.655,661.349 611,655.5C 609.249,653.51 608.249,651.177 608,648.5C 607.667,515.167 607.333,381.833 607,248.5C 606.5,382.5 606.333,516.5 606.5,650.5C 606.167,650.5 605.833,650.5 605.5,650.5C 605.833,516.165 605.5,381.832 604.5,247.5C 602.757,245.962 600.757,244.962 598.5,244.5C 540.706,205.713 482.373,167.713 423.5,130.5C 425.379,130.607 425.712,130.107 424.5,129C 403.833,116 383.167,103 362.5,90C 361.563,89.3083 360.897,89.475 360.5,90.5C 352.976,94.4254 345.976,99.0921 339.5,104.5C 318.359,117.573 297.359,130.906 276.5,144.5C 275.279,143.535 273.946,143.702 272.5,145C 261.254,151.864 250.921,159.031 241.5,166.5C 200.365,193.238 159.365,220.238 118.5,247.5C 118.44,246.957 118.107,246.624 117.5,246.5C 113.367,248.802 109.367,251.302 105.5,254C 97.0203,257.183 90.1869,255.017 85,247.5C 83.8976,243.584 83.231,239.584 83,235.5C 82.502,238.482 82.3354,241.482 82.5,244.5C 80.0605,236.502 82.3938,230.002 89.5,225C 161.799,177.523 234.465,130.69 307.5,84.5C 310.721,83.8891 313.721,82.7224 316.5,81C 329.547,71.8575 342.88,63.1908 356.5,55C 360.186,54.1933 363.686,54.6933 367,56.5C 456.635,112.477 545.468,169.644 633.5,228C 635.499,230.255 636.832,232.755 637.5,235.5 Z"/></g>
<g><path style="opacity:1" fill="#e9ebe2" d="M 360.5,90.5 C 367.87,95.5129 375.204,100.513 382.5,105.5C 377.69,103.012 373.024,100.846 368.5,99C 367.778,96.213 366.278,95.3796 364,96.5C 362.146,94.5862 360.146,93.9195 358,94.5C 357.517,95.448 357.351,96.448 357.5,97.5C 352.81,97.8384 348.81,99.6717 345.5,103C 343.482,103.505 341.482,104.005 339.5,104.5C 345.976,99.0921 352.976,94.4254 360.5,90.5 Z"/></g>
<g><path style="opacity:1" fill="#255230" d="M 360.5,90.5 C 360.897,89.475 361.563,89.3083 362.5,90C 383.167,103 403.833,116 424.5,129C 425.712,130.107 425.379,130.607 423.5,130.5C 410.08,121.743 396.413,113.409 382.5,105.5C 375.204,100.513 367.87,95.5129 360.5,90.5 Z"/></g>
<g><path style="opacity:1" fill="#264f2e" d="M 276.5,144.5 C 264.974,152.094 253.307,159.428 241.5,166.5C 250.921,159.031 261.254,151.864 272.5,145C 273.946,143.702 275.279,143.535 276.5,144.5 Z"/></g>
<g><path style="opacity:1" fill="#235d39" d="M 425.5,259.5 C 431.088,266.677 435.088,274.677 437.5,283.5C 437.498,285.831 438.331,287.831 440,289.5C 467.008,316.508 493.341,344.175 519,372.5C 520.777,374.79 522.944,376.457 525.5,377.5C 527.988,380.767 529.821,384.434 531,388.5C 532.664,406.841 527.497,423.008 515.5,437C 511.469,439.455 507.136,441.121 502.5,442C 492.833,442.667 483.167,442.667 473.5,442C 470.44,441.152 467.44,440.152 464.5,439C 459.03,433.709 454.03,428.042 449.5,422C 426.574,410.451 403.407,399.618 380,389.5C 359.769,394.481 339.936,393.315 320.5,386C 306.909,378.986 297.909,368.153 293.5,353.5C 293.279,350.933 292.612,348.599 291.5,346.5C 291.308,338.809 291.642,331.142 292.5,323.5C 292.333,322.167 292.167,320.833 292,319.5C 291.283,320.044 290.783,320.711 290.5,321.5C 273.547,337.766 260.881,356.766 252.5,378.5C 252.587,375.402 252.087,375.068 251,377.5C 249.511,382.457 248.178,387.457 247,392.5C 246.333,404.833 246.333,417.167 247,429.5C 247.169,417.326 247.669,405.326 248.5,393.5C 248.333,406.837 248.5,420.171 249,433.5C 254.598,456.028 265.431,475.694 281.5,492.5C 280.475,492.897 280.308,493.563 281,494.5C 293.049,507.561 306.549,518.728 321.5,528C 326.942,528.799 331.942,527.632 336.5,524.5C 339.651,521.85 342.651,519.016 345.5,516C 344.906,515.536 344.239,515.369 343.5,515.5C 344.815,514.333 345.481,512.833 345.5,511C 344.622,505.537 344.288,500.037 344.5,494.5C 345.924,492.485 346.59,490.152 346.5,487.5C 356.818,469.012 372.484,461.846 393.5,466C 420.527,479.883 426.027,499.716 410,525.5C 402.264,533.03 392.93,537.03 382,537.5C 376.239,536.989 370.573,535.989 365,534.5C 356.796,544.028 346.63,550.694 334.5,554.5C 332.533,554.261 330.699,554.594 329,555.5C 328.725,558.058 329.225,560.392 330.5,562.5C 330.41,565.152 331.076,567.485 332.5,569.5C 335.657,579.284 337.657,589.284 338.5,599.5C 338.984,603.827 338.318,607.827 336.5,611.5C 327.833,611.5 319.167,611.5 310.5,611.5C 300.176,609.672 289.842,607.338 279.5,604.5C 279.167,604.5 278.833,604.5 278.5,604.5C 273.443,601.98 268.109,599.98 262.5,598.5C 247.016,591.932 232.683,583.599 219.5,573.5C 216.754,569.259 213.088,565.759 208.5,563C 185.548,541.771 169.214,516.937 159.5,488.5C 159.167,488.5 158.833,488.5 158.5,488.5C 158.5,488.167 158.5,487.833 158.5,487.5C 158.279,484.933 157.612,482.599 156.5,480.5C 154.95,473.232 153.617,465.899 152.5,458.5C 152.374,445.817 152.707,433.15 153.5,420.5C 154.981,413.764 156.314,407.097 157.5,400.5C 158.924,398.485 159.59,396.152 159.5,393.5C 161.358,387.408 163.525,381.408 166,375.5C 171.557,362.042 178.891,349.709 188,338.5C 188.982,337.241 189.315,335.908 189,334.5C 164.677,354.621 147.843,379.621 138.5,409.5C 137.076,411.515 136.41,413.848 136.5,416.5C 135.21,421.155 134.21,425.822 133.5,430.5C 133.66,428.801 133.494,427.134 133,425.5C 129.335,443.14 128.335,460.806 130,478.5C 130.494,476.866 130.66,475.199 130.5,473.5C 130.833,473.5 131.167,473.5 131.5,473.5C 132.167,480.167 132.833,486.833 133.5,493.5C 133.294,496.495 133.96,499.162 135.5,501.5C 140.332,523.376 148.998,543.709 161.5,562.5C 161.343,563.873 161.51,565.207 162,566.5C 192.236,608.037 232.069,635.871 281.5,650C 298.494,654.052 315.494,654.386 332.5,651C 332,650.833 331.5,650.667 331,650.5C 327.895,651.367 324.728,651.701 321.5,651.5C 345.484,649.003 367.151,640.503 386.5,626C 389.704,623.131 392.537,619.965 395,616.5C 392.174,594.671 401.007,579.838 421.5,572C 427.833,571.333 434.167,571.333 440.5,572C 444.856,573.184 449.189,574.351 453.5,575.5C 470.138,562.419 486.638,548.419 503,533.5C 501.941,525.274 502.441,517.107 504.5,509C 504.317,507.316 503.65,507.15 502.5,508.5C 511.145,489.926 525.645,482.259 546,485.5C 558.818,489.467 567.985,497.467 573.5,509.5C 574.331,516.131 574.664,522.798 574.5,529.5C 572.333,540.513 566.666,549.179 557.5,555.5C 557.44,554.957 557.107,554.624 556.5,554.5C 548.842,558.415 540.842,560.415 532.5,560.5C 527.407,559.525 522.573,557.858 518,555.5C 500.726,569.273 484.226,583.94 468.5,599.5C 471.435,615.198 466.435,627.698 453.5,637C 447.091,641.191 440.091,643.691 432.5,644.5C 426.076,643.403 419.742,642.236 413.5,641C 404.471,649.871 394.471,657.371 383.5,663.5C 383.44,662.957 383.107,662.624 382.5,662.5C 368.978,669.975 355.311,675.308 341.5,678.5C 339.167,679.167 336.833,679.833 334.5,680.5C 334.167,680.5 333.833,680.5 333.5,680.5C 333.167,680.5 332.833,680.5 332.5,680.5C 330.19,679.836 327.69,679.503 325,679.5C 316.987,679.862 309.154,680.529 301.5,681.5C 299.5,681.5 297.5,681.5 295.5,681.5C 251.722,676.314 213.055,659.647 179.5,631.5C 171.612,623.109 163.445,614.776 155,606.5C 136.656,584.88 121.989,560.88 111,534.5C 110.536,535.094 110.369,535.761 110.5,536.5C 108.791,533.045 107.458,529.379 106.5,525.5C 106.405,523.214 105.738,521.214 104.5,519.5C 102.684,513.651 101.351,507.651 100.5,501.5C 100.23,496.972 99.5629,492.639 98.5,488.5C 98.5,487.5 98.5,486.5 98.5,485.5C 98.5391,470.165 98.5391,454.832 98.5,439.5C 98.5,438.167 98.5,436.833 98.5,435.5C 99.5926,430.694 100.259,425.694 100.5,420.5C 100.754,415.556 101.754,410.889 103.5,406.5C 105.04,404.162 105.706,401.495 105.5,398.5C 106.924,396.485 107.59,394.152 107.5,391.5C 126.904,326.602 164.571,275.102 220.5,237C 250.924,218.191 283.924,206.525 319.5,202C 331.277,189.036 344.611,178.203 359.5,169.5C 366.334,166.253 373.334,163.253 380.5,160.5C 381.49,168.477 381.657,176.477 381,184.5C 379.454,195.001 377.454,205.335 375,215.5C 385.328,222.743 395.162,230.576 404.5,239C 412.072,245.901 418.905,253.401 425,261.5C 425.464,260.906 425.631,260.239 425.5,259.5 Z"/></g>
<g><path style="opacity:1" fill="#436949" d="M 638.5,650.5 C 638.833,511.999 638.5,373.666 637.5,235.5C 636.832,232.755 635.499,230.255 633.5,228C 545.468,169.644 456.635,112.477 367,56.5C 363.686,54.6933 360.186,54.1933 356.5,55C 342.88,63.1908 329.547,71.8575 316.5,81C 313.721,82.7224 310.721,83.8891 307.5,84.5C 322.657,74.1963 337.99,64.0297 353.5,54C 356.702,52.5167 360.036,52.1834 363.5,53C 455.942,109.964 547.109,168.797 637,229.5C 637.667,230.833 638.333,232.167 639,233.5C 639.833,372.667 639.666,511.667 638.5,650.5 Z"/></g>
<g><path style="opacity:1" fill="#325b3a" d="M 425.5,259.5 C 425.631,260.239 425.464,260.906 425,261.5C 418.905,253.401 412.072,245.901 404.5,239C 395.162,230.576 385.328,222.743 375,215.5C 377.454,205.335 379.454,195.001 381,184.5C 381.657,176.477 381.49,168.477 380.5,160.5C 373.334,163.253 366.334,166.253 359.5,169.5C 365.949,164.769 372.949,160.769 380.5,157.5C 381.086,157.709 381.586,158.043 382,158.5C 383.548,167.438 383.881,176.438 383,185.5C 381.75,195.749 379.75,205.749 377,215.5C 386.62,222.063 395.786,229.23 404.5,237C 412.072,244.068 419.072,251.568 425.5,259.5 Z"/></g>
<g><path style="opacity:1" fill="#214d2a" d="M 118.5,247.5 C 114.385,249.775 110.385,252.275 106.5,255C 96.6393,258.645 88.806,256.145 83,247.5C 82.5172,246.552 82.3505,245.552 82.5,244.5C 82.3354,241.482 82.502,238.482 83,235.5C 83.231,239.584 83.8976,243.584 85,247.5C 90.1869,255.017 97.0203,257.183 105.5,254C 109.367,251.302 113.367,248.802 117.5,246.5C 118.107,246.624 118.44,246.957 118.5,247.5 Z"/></g>
<g><path style="opacity:1" fill="#2c5534" d="M 437.5,283.5 C 467.172,314.506 496.505,345.839 525.5,377.5C 522.944,376.457 520.777,374.79 519,372.5C 493.341,344.175 467.008,316.508 440,289.5C 438.331,287.831 437.498,285.831 437.5,283.5 Z"/></g>
<g><path style="opacity:1" fill="#0f421e" d="M 633.5,658.5 C 625.741,663.99 618.075,663.823 610.5,658C 608.506,655.842 607.172,653.342 606.5,650.5C 606.333,516.5 606.5,382.5 607,248.5C 607.333,381.833 607.667,515.167 608,648.5C 608.249,651.177 609.249,653.51 611,655.5C 617.655,661.349 624.822,662.015 632.5,657.5C 633.107,657.624 633.44,657.957 633.5,658.5 Z"/></g>
<g><path style="opacity:1" fill="#8fa692" d="M 291.5,346.5 C 290.671,338.146 290.338,329.812 290.5,321.5C 290.783,320.711 291.283,320.044 292,319.5C 292.167,320.833 292.333,322.167 292.5,323.5C 291.642,331.142 291.308,338.809 291.5,346.5 Z"/></g>
<g><path style="opacity:1" fill="#a0b3a1" d="M 291.5,346.5 C 292.612,348.599 293.279,350.933 293.5,353.5C 291.837,351.562 291.171,349.228 291.5,346.5 Z"/></g>
<g><path style="opacity:1" fill="#fbfaf3" d="M 598.5,244.5 C 600.757,244.962 602.757,245.962 604.5,247.5C 605.5,381.832 605.833,516.165 605.5,650.5C 605.279,653.097 604.779,653.097 604,650.5C 603.833,516.499 603.333,382.499 602.5,248.5C 600.192,248.035 598.858,246.701 598.5,244.5 Z"/></g>
<g><path style="opacity:1" fill="#748e76" d="M 107.5,391.5 C 107.59,394.152 106.924,396.485 105.5,398.5C 105.41,395.848 106.076,393.515 107.5,391.5 Z"/></g>
<g><path style="opacity:1" fill="#6e8971" d="M 159.5,393.5 C 159.59,396.152 158.924,398.485 157.5,400.5C 157.41,397.848 158.076,395.515 159.5,393.5 Z"/></g>
<g><path style="opacity:1" fill="#1c4f2a" d="M 252.5,378.5 C 250.441,383.415 249.108,388.415 248.5,393.5C 247.669,405.326 247.169,417.326 247,429.5C 246.333,417.167 246.333,404.833 247,392.5C 248.178,387.457 249.511,382.457 251,377.5C 252.087,375.068 252.587,375.402 252.5,378.5 Z"/></g>
<g><path style="opacity:1" fill="#6e876f" d="M 105.5,398.5 C 105.706,401.495 105.04,404.162 103.5,406.5C 103.565,403.572 104.232,400.905 105.5,398.5 Z"/></g>
<g><path style="opacity:1" fill="#90a491" d="M 138.5,409.5 C 138.59,412.152 137.924,414.485 136.5,416.5C 136.41,413.848 137.076,411.515 138.5,409.5 Z"/></g>
<g><path style="opacity:1" fill="#bfcbbd" d="M 100.5,420.5 C 100.259,425.694 99.5926,430.694 98.5,435.5C 98.7006,432.272 98.3672,429.105 97.5,426C 97.6107,424.278 98.1107,424.112 99,425.5C 99.1981,423.618 99.6981,421.952 100.5,420.5 Z"/></g>
<g><path style="opacity:1" fill="#144a24" d="M 133.5,430.5 C 133.5,430.833 133.5,431.167 133.5,431.5C 132.262,435.619 131.429,439.953 131,444.5C 130.5,454.161 130.334,463.828 130.5,473.5C 130.66,475.199 130.494,476.866 130,478.5C 128.335,460.806 129.335,443.14 133,425.5C 133.494,427.134 133.66,428.801 133.5,430.5 Z"/></g>
<g><path style="opacity:1" fill="#96ad9d" d="M 153.5,420.5 C 152.707,433.15 152.374,445.817 152.5,458.5C 151.834,453.678 151.501,448.678 151.5,443.5C 151.344,435.611 152.01,427.944 153.5,420.5 Z"/></g>
<g><path style="opacity:1" fill="#22522d" d="M 98.5,439.5 C 98.5391,454.832 98.5391,470.165 98.5,485.5C 97.2307,470.22 97.2307,454.886 98.5,439.5 Z"/></g>
<g><path style="opacity:1" fill="#8ba490" d="M 133.5,431.5 C 131.872,445.443 131.206,459.443 131.5,473.5C 131.167,473.5 130.833,473.5 130.5,473.5C 130.334,463.828 130.5,454.161 131,444.5C 131.429,439.953 132.262,435.619 133.5,431.5 Z"/></g>
<g><path style="opacity:1" fill="#0b4921" d="M 637.5,235.5 C 638.5,373.666 638.833,511.999 638.5,650.5C 637.778,650.918 637.278,651.584 637,652.5C 637.495,513.554 637.662,374.554 637.5,235.5 Z"/></g>
<g><path style="opacity:1" fill="#a2b4a3" d="M 156.5,480.5 C 157.612,482.599 158.279,484.933 158.5,487.5C 156.837,485.562 156.171,483.228 156.5,480.5 Z"/></g>
<g><path style="opacity:1" fill="#f7f4e9" d="M 376.5,487.5 C 384.28,485.753 390.447,488.087 395,494.5C 398.479,512.01 391.646,517.843 374.5,512C 365.891,502.932 366.558,494.765 376.5,487.5 Z"/></g>
<g><path style="opacity:1" fill="#9baf9b" d="M 158.5,488.5 C 158.833,488.5 159.167,488.5 159.5,488.5C 160.297,492.223 161.297,495.89 162.5,499.5C 160.01,496.374 158.677,492.708 158.5,488.5 Z"/></g>
<g><path style="opacity:1" fill="#285331" d="M 281.5,492.5 C 293.129,505.299 306.129,516.465 320.5,526C 330.157,526.837 337.824,523.337 343.5,515.5C 344.239,515.369 344.906,515.536 345.5,516C 342.651,519.016 339.651,521.85 336.5,524.5C 331.942,527.632 326.942,528.799 321.5,528C 306.549,518.728 293.049,507.561 281,494.5C 280.308,493.563 280.475,492.897 281.5,492.5 Z"/></g>
<g><path style="opacity:1" fill="#778e78" d="M 346.5,487.5 C 346.59,490.152 345.924,492.485 344.5,494.5C 344.41,491.848 345.076,489.515 346.5,487.5 Z"/></g>
<g><path style="opacity:1" fill="#a4b5a4" d="M 98.5,488.5 C 99.5629,492.639 100.23,496.972 100.5,501.5C 98.8227,497.455 98.1561,493.122 98.5,488.5 Z"/></g>
<g><path style="opacity:1" fill="#769279" d="M 133.5,493.5 C 134.768,495.905 135.435,498.572 135.5,501.5C 133.96,499.162 133.294,496.495 133.5,493.5 Z"/></g>
<g><path style="opacity:1" fill="#f7f5e9" d="M 534.5,506.5 C 548.878,507.707 554.711,515.374 552,529.5C 545.799,537.815 537.966,539.648 528.5,535C 520.318,523.323 522.318,513.823 534.5,506.5 Z"/></g>
<g><path style="opacity:1" fill="#d5ddd2" d="M 162.5,500.5 C 166.07,507.309 169.403,514.309 172.5,521.5C 171.357,521.092 170.357,520.425 169.5,519.5C 167.573,515.309 165.406,511.309 163,507.5C 162.503,505.19 162.337,502.857 162.5,500.5 Z"/></g>
<g><path style="opacity:1" fill="#647f64" d="M 502.5,509.5 C 501.964,517.654 501.297,525.654 500.5,533.5C 500.334,526.492 500.5,519.492 501,512.5C 501.232,511.263 501.732,510.263 502.5,509.5 Z"/></g>
<g><path style="opacity:1" fill="#5f7d62" d="M 573.5,509.5 C 575.048,513.034 575.714,516.867 575.5,521C 575.498,524.021 575.164,526.854 574.5,529.5C 574.664,522.798 574.331,516.131 573.5,509.5 Z"/></g>
<g><path style="opacity:1" fill="#a8bbaa" d="M 104.5,519.5 C 105.738,521.214 106.405,523.214 106.5,525.5C 104.72,524.01 104.054,522.01 104.5,519.5 Z"/></g>
<g><path style="opacity:1" fill="#234f2d" d="M 453.5,575.5 C 469.167,561.5 484.833,547.5 500.5,533.5C 501.297,525.654 501.964,517.654 502.5,509.5C 502.5,509.167 502.5,508.833 502.5,508.5C 503.65,507.15 504.317,507.316 504.5,509C 502.441,517.107 501.941,525.274 503,533.5C 486.638,548.419 470.138,562.419 453.5,575.5 Z"/></g>
<g><path style="opacity:1" fill="#285331" d="M 219.5,573.5 C 200.249,559.256 184.582,541.923 172.5,521.5C 169.403,514.309 166.07,507.309 162.5,500.5C 162.5,500.167 162.5,499.833 162.5,499.5C 161.297,495.89 160.297,492.223 159.5,488.5C 169.214,516.937 185.548,541.771 208.5,563C 213.088,565.759 216.754,569.259 219.5,573.5 Z"/></g>
<g><path style="opacity:1" fill="#b7c4b8" d="M 334.5,554.5 C 333.469,555.249 332.302,555.915 331,556.5C 330.505,558.473 330.338,560.473 330.5,562.5C 329.225,560.392 328.725,558.058 329,555.5C 330.699,554.594 332.533,554.261 334.5,554.5 Z"/></g>
<g><path style="opacity:1" fill="#1a4622" d="M 557.5,555.5 C 549.789,559.94 541.456,561.606 532.5,560.5C 540.842,560.415 548.842,558.415 556.5,554.5C 557.107,554.624 557.44,554.957 557.5,555.5 Z"/></g>
<g><path style="opacity:1" fill="#7b957e" d="M 330.5,562.5 C 331.924,564.515 332.59,566.848 332.5,569.5C 331.076,567.485 330.41,565.152 330.5,562.5 Z"/></g>
<g><path style="opacity:1" fill="#275230" d="M 179.5,631.5 C 147.923,605.994 124.923,574.327 110.5,536.5C 110.369,535.761 110.536,535.094 111,534.5C 121.989,560.88 136.656,584.88 155,606.5C 163.445,614.776 171.612,623.109 179.5,631.5 Z"/></g>
<g><path style="opacity:1" fill="#f6f4e8" d="M 427.5,593.5 C 441.491,593.738 447.324,600.738 445,614.5C 439.636,620.061 433.136,621.895 425.5,620C 418.699,615.952 416.699,610.118 419.5,602.5C 421.497,598.84 424.164,595.84 427.5,593.5 Z"/></g>
<g><path style="opacity:1" fill="#d8dfd5" d="M 262.5,598.5 C 268.109,599.98 273.443,601.98 278.5,604.5C 274.305,604.618 270.305,603.785 266.5,602C 264.456,601.502 263.122,600.335 262.5,598.5 Z"/></g>
<g><path style="opacity:1" fill="#7e937e" d="M 338.5,599.5 C 339.483,603.298 339.817,607.298 339.5,611.5C 338.5,611.5 337.5,611.5 336.5,611.5C 338.318,607.827 338.984,603.827 338.5,599.5 Z"/></g>
<g><path style="opacity:1" fill="#dee3da" d="M 279.5,604.5 C 289.842,607.338 300.176,609.672 310.5,611.5C 301.017,612.258 291.85,610.924 283,607.5C 281.636,606.629 280.47,605.629 279.5,604.5 Z"/></g>
<g><path style="opacity:1" fill="#2a5533" d="M 161.5,562.5 C 194.381,610.795 239.714,640.295 297.5,651C 305.493,651.5 313.493,651.666 321.5,651.5C 324.728,651.701 327.895,651.367 331,650.5C 331.5,650.667 332,650.833 332.5,651C 315.494,654.386 298.494,654.052 281.5,650C 232.069,635.871 192.236,608.037 162,566.5C 161.51,565.207 161.343,563.873 161.5,562.5 Z"/></g>
<g><path style="opacity:1" fill="#1c4925" d="M 383.5,663.5 C 378.592,666.452 373.592,669.119 368.5,671.5C 361.071,673.867 353.738,676.2 346.5,678.5C 346.167,678.5 345.833,678.5 345.5,678.5C 344.167,678.5 342.833,678.5 341.5,678.5C 355.311,675.308 368.978,669.975 382.5,662.5C 383.107,662.624 383.44,662.957 383.5,663.5 Z"/></g>
<g><path style="opacity:1" fill="#c6d0c5" d="M 368.5,671.5 C 364.463,673.859 360.13,675.859 355.5,677.5C 352.572,678.484 349.572,678.817 346.5,678.5C 353.738,676.2 361.071,673.867 368.5,671.5 Z"/></g>
<g><path style="opacity:1" fill="#b1c1b3" d="M 341.5,678.5 C 342.833,678.5 344.167,678.5 345.5,678.5C 342.155,680.217 338.489,680.884 334.5,680.5C 336.833,679.833 339.167,679.167 341.5,678.5 Z"/></g>
<g><path style="opacity:1" fill="#0c401a" d="M 332.5,680.5 C 322.185,681.267 311.852,681.601 301.5,681.5C 309.154,680.529 316.987,679.862 325,679.5C 327.69,679.503 330.19,679.836 332.5,680.5 Z"/></g>
<g><path style="opacity:1" fill="#b0bfb2" d="M 332.5,680.5 C 332.833,680.5 333.167,680.5 333.5,680.5C 326.228,682.017 318.728,682.684 311,682.5C 305.656,682.499 300.489,682.166 295.5,681.5C 297.5,681.5 299.5,681.5 301.5,681.5C 311.852,681.601 322.185,681.267 332.5,680.5 Z"/></g>
</svg>
