<?xml version="1.0" standalone="no"?>
<!DOCTYPE svg PUBLIC "-//W3C//DTD SVG 20010904//EN"
 "http://www.w3.org/TR/2001/REC-SVG-20010904/DTD/svg10.dtd">
<svg version="1.0" xmlns="http://www.w3.org/2000/svg"
 width="512.000000pt" height="512.000000pt" viewBox="0 0 512.000000 512.000000"
 preserveAspectRatio="xMidYMid meet">
<metadata>
Created by Connected Stable
</metadata>
<g transform="translate(0.000000,512.000000) scale(0.100000,-0.100000)"
fill="#000000" stroke="none">
<path d="M0 2560 l0 -2560 2560 0 2560 0 0 2560 0 2560 -2560 0 -2560 0 0
-2560z m2560 1280 c354 0 640 -286 640 -640 0 -354 -286 -640 -640 -640 -354
0 -640 286 -640 640 0 354 286 640 640 640z"/>
<path d="M2240 3520 c-177 -47 -320 -190 -367 -367 -24 -91 -24 -195 0 -286
47 -177 190 -320 367 -367 91 -24 195 -24 286 0 177 47 320 190 367 367 24
91 24 195 0 286 -47 177 -190 320 -367 367 -91 24 -195 24 -286 0z"/>
</g>
</svg>